<?xml version="1.0" standalone="no"?>
<!DOCTYPE svg PUBLIC "-//W3C//DTD SVG 20010904//EN"
 "http://www.w3.org/TR/2001/REC-SVG-20010904/DTD/svg10.dtd">
<svg version="1.0" xmlns="http://www.w3.org/2000/svg"
 width="1250.000000pt" height="259.000000pt" viewBox="0 0 1250.000000 259.000000"
 preserveAspectRatio="xMidYMid meet">
<metadata>
Created by potrace 1.15, written by Peter Selinger 2001-2017
</metadata>
<g transform="translate(0.000000,259.000000) scale(0.100000,-0.100000)"
fill="#000000" stroke="none">
<path d="M0 1295 l0 -1295 6250 0 6250 0 0 1295 0 1295 -6250 0 -6250 0 0
-1295z m1620 718 c39 -23 60 -64 60 -118 0 -81 -46 -139 -129 -161 -48 -12
-58 -10 -269 43 -222 57 -254 60 -286 27 -23 -22 -31 -64 -17 -86 18 -29 -5
-21 -32 12 -72 85 -26 222 88 266 61 23 128 15 293 -35 183 -56 252 -53 252
11 0 24 -27 58 -46 58 -7 0 -15 4 -18 9 -8 13 72 -7 104 -26z m7509 8 c9 -5
27 -21 41 -36 21 -23 25 -36 25 -90 0 -71 -19 -106 -74 -139 -74 -43 -84 -42
-466 58 -83 22 -112 20 -142 -10 -21 -21 -25 -32 -20 -66 5 -39 5 -39 -15 -21
-47 43 -61 113 -34 177 28 67 107 115 188 116 26 0 104 -17 180 -41 164 -50
240 -59 268 -34 31 28 26 62 -15 86 -19 12 -35 22 -35 24 0 5 82 -15 99 -24z
m-1389 -469 l0 -448 30 -29 c29 -28 30 -28 52 -10 13 10 -8 -11 -47 -47 -108
-103 -105 -102 -173 -35 -58 57 -58 58 -77 37 -10 -11 -22 -20 -27 -20 -4 0
10 16 32 36 l41 37 -3 375 -3 375 -22 14 c-22 15 -21 17 80 88 56 40 105 74
110 74 4 1 7 -201 7 -447z m-3806 364 c-12 -58 -51 -113 -97 -135 -24 -12 -51
-21 -60 -21 -16 0 -17 -33 -17 -425 0 -234 -4 -425 -8 -425 -18 0 -44 44 -258
435 l-219 400 -3 -289 c-1 -159 1 -292 5 -296 5 -3 26 -12 48 -19 22 -8 61
-28 86 -46 l46 -33 29 26 c15 15 -4 -9 -43 -53 -111 -125 -106 -122 -143 -91
-25 20 -42 26 -81 26 -45 0 -51 -3 -69 -32 -24 -39 -19 -63 21 -100 28 -27 29
-28 7 -28 -32 0 -95 41 -118 76 -24 35 -26 109 -6 157 22 53 77 94 146 108
l60 12 0 128 c0 128 0 129 -23 129 -39 0 -69 -29 -65 -61 6 -37 -6 -37 -42 -1
-62 62 -47 161 30 200 24 12 57 22 72 22 l28 0 0 98 c0 94 -1 99 -27 124 -16
14 -35 28 -44 31 -21 7 -58 -18 -69 -47 -8 -19 -9 -18 -9 9 -2 85 55 168 125
181 45 8 116 -18 147 -56 13 -15 95 -158 182 -316 87 -159 164 -298 172 -309
11 -16 13 17 13 221 l0 241 -38 7 c-22 3 -56 18 -77 32 l-39 26 -23 -28 c-13
-16 -23 -25 -23 -21 0 9 149 180 161 185 4 2 22 -6 40 -17 49 -30 113 -28 144
4 14 13 25 30 26 37 0 7 5 2 10 -11 5 -14 7 -39 3 -55z m-1982 -175 l3 -239
80 69 80 69 67 -72 66 -71 29 17 28 17 -27 -23 -27 -23 -3 -260 c-3 -239 -5
-264 -24 -305 -42 -90 -140 -150 -242 -150 l-47 1 30 13 c40 18 89 72 105 116
9 24 15 114 18 280 l4 245 -42 53 c-42 52 -48 54 -82 24 -16 -13 -18 -37 -18
-212 0 -193 0 -197 23 -218 13 -12 27 -19 30 -15 4 3 7 4 7 1 0 -4 -35 -34
-77 -68 l-77 -61 -57 57 c-37 36 -62 54 -71 49 -7 -4 2 6 20 22 l32 28 0 356
c0 308 -2 358 -15 369 -9 7 -14 17 -13 21 4 10 181 149 190 149 4 0 9 -108 10
-239z m3855 189 c70 -42 68 -25 71 -522 l3 -448 -76 0 c-48 0 -87 -6 -105 -15
-54 -28 -65 -80 -25 -120 32 -32 70 -32 255 1 243 43 313 34 368 -47 52 -75 1
-196 -95 -224 -22 -6 -22 -5 -8 22 19 36 19 52 -2 75 -23 25 -82 23 -228 -7
-137 -29 -246 -33 -296 -12 -126 54 -136 238 -16 302 l37 20 0 203 c0 219 -1
223 -54 203 -32 -13 -43 -37 -27 -62 18 -30 -15 -24 -44 7 -69 74 -20 193 86
210 l39 7 0 144 c0 139 -1 145 -25 168 -13 14 -31 25 -40 25 -9 0 -27 -11 -40
-25 -14 -13 -25 -20 -25 -14 0 25 34 72 72 99 51 37 124 41 175 10z m211 -436
c23 -18 63 -17 90 2 21 14 22 22 22 139 l0 125 -50 39 -49 39 69 56 c38 31 74
56 79 56 6 0 38 -25 72 -55 l62 -56 27 26 c14 14 29 25 33 25 4 0 -8 -14 -28
-31 l-35 -31 0 -409 c0 -451 -2 -464 -59 -494 -54 -27 -109 -28 -211 -1 -52
13 -85 25 -72 25 l22 1 2 503 c2 276 4 401 5 278 3 -199 5 -226 21 -237z
m3455 312 l21 -30 -59 -53 -60 -53 -38 38 c-67 65 -67 68 -1 128 l59 52 28
-26 c16 -15 38 -40 50 -56z m-4997 -61 c-9 -13 -16 -34 -16 -46 0 -22 46 -72
112 -122 24 -17 41 -40 47 -65 6 -20 11 -121 11 -223 l0 -186 47 -37 c78 -61
78 -61 81 178 l2 209 -27 30 -28 29 65 58 c36 33 70 59 75 59 6 0 37 -24 70
-53 l60 -54 -27 -29 -28 -29 0 -176 0 -176 59 -51 c94 -81 91 -87 91 171 l0
222 -26 27 -25 26 61 59 c34 33 67 60 74 62 7 2 41 -20 75 -49 56 -46 63 -50
79 -37 9 8 24 19 32 23 18 10 -76 -76 -96 -88 -11 -6 -14 -48 -14 -190 l0
-182 -137 -85 c-76 -46 -145 -88 -154 -94 -13 -7 -33 4 -93 54 l-77 62 -80
-61 -80 -62 -62 52 c-34 28 -67 54 -74 56 -7 3 -27 -5 -45 -17 l-33 -22 33 29
33 28 -3 202 -3 201 -51 54 c-89 94 -78 181 31 249 44 28 61 25 41 -6z m-3309
-22 c-45 -35 -112 -134 -96 -143 7 -5 6 -9 -4 -13 -17 -6 -37 -88 -37 -151 0
-51 31 -157 60 -203 l20 -33 35 17 35 17 0 197 c0 169 -2 198 -15 201 -9 2 32
24 90 50 l105 46 0 -207 0 -207 -120 -59 c-66 -33 -120 -63 -120 -67 0 -4 21
-23 47 -43 60 -46 140 -69 205 -61 57 8 128 34 128 47 0 5 6 9 13 9 16 0 95
81 132 135 l27 40 -6 -46 c-8 -70 -43 -153 -86 -208 -30 -37 -59 -59 -117 -88
-74 -37 -81 -38 -178 -38 -135 1 -197 25 -281 109 -73 73 -110 147 -124 242
-26 185 72 369 242 454 76 37 92 38 45 3z m7522 2 c-19 -14 -42 -36 -52 -48
-28 -35 -58 -97 -47 -97 5 0 1 -9 -9 -19 -24 -24 -35 -93 -28 -176 9 -124 93
-251 196 -298 66 -31 169 -29 236 3 62 30 138 100 172 158 14 23 28 41 30 38
9 -9 -20 -122 -44 -171 -34 -70 -105 -138 -177 -172 -54 -25 -72 -28 -161 -28
-128 0 -190 23 -275 102 -222 205 -165 564 110 702 76 38 96 40 49 6z m191
-223 l0 -207 -92 -46 -93 -46 0 212 0 213 90 40 c50 22 91 41 93 41 1 1 2 -92
2 -207z m2695 62 c-9 -24 -22 -44 -27 -44 -6 0 -8 -3 -5 -6 3 -4 1 -16 -4 -27
-8 -14 -13 -16 -19 -7 -6 9 -13 9 -28 1 -50 -27 -119 -6 -166 49 l-26 32 0
-98 0 -98 33 -27 32 -28 67 66 c41 41 65 59 63 47 -3 -14 10 -31 50 -62 l55
-43 0 -117 0 -117 -43 -24 c-23 -13 -80 -48 -127 -79 -67 -43 -87 -52 -100
-43 -8 6 -30 19 -48 28 -66 34 -127 -23 -77 -73 29 -29 21 -31 -22 -4 -44 27
-66 73 -60 127 5 47 35 102 46 85 5 -8 16 -5 36 8 65 43 164 16 210 -57 11
-18 23 -32 28 -33 4 0 7 51 7 114 l0 115 -37 30 -36 30 -61 -53 -61 -54 -57
52 -58 51 0 88 c0 88 0 88 31 105 17 9 76 45 132 78 l101 62 31 -24 c45 -34
90 -32 124 5 24 27 26 27 29 9 2 -11 -4 -40 -13 -64z m-3525 36 c20 0 46 7 58
16 13 9 25 14 28 12 10 -11 -31 -100 -59 -127 -48 -48 -94 -51 -175 -13 -20 9
-37 11 -42 6 -5 -5 50 -99 136 -228 l145 -218 28 23 c15 13 5 2 -23 -24 -67
-64 -136 -121 -140 -116 -8 8 -249 395 -253 406 -3 7 35 70 83 140 120 176
109 166 147 142 18 -10 48 -19 67 -19z m-5285 -85 l64 -110 -27 -22 c-47 -40
-116 -87 -108 -75 7 12 -111 222 -126 222 -4 0 -8 -70 -8 -155 l0 -156 23 11
22 11 -22 -20 c-13 -10 -23 -28 -23 -38 0 -10 31 -49 68 -86 l69 -68 76 60
c42 34 80 61 83 61 4 0 -51 -46 -122 -101 -71 -56 -136 -108 -144 -115 -13
-11 -28 -2 -99 61 -46 41 -86 75 -89 75 -3 0 -17 -10 -31 -22 -24 -21 -24 -21
2 8 l27 30 0 191 c0 174 2 192 18 197 9 3 73 39 142 80 69 41 129 74 133 73 5
-1 37 -52 72 -112z m1502 0 c35 -59 63 -110 62 -114 0 -3 -27 -25 -59 -48
l-60 -43 -56 98 c-32 53 -63 106 -71 117 -11 17 -13 -8 -13 -177 l1 -197 66
-61 66 -60 63 51 c35 28 64 48 64 46 0 -3 -57 -51 -127 -106 l-126 -100 -84
75 -83 76 -32 -22 -33 -22 28 24 27 24 0 195 0 196 48 22 c26 12 90 49 142 81
52 32 99 57 105 56 5 -1 38 -51 72 -111z m2568 40 c48 -41 89 -75 93 -75 3 0
17 10 31 22 24 21 24 21 -1 -8 l-28 -30 0 -190 0 -189 -98 -52 c-53 -29 -120
-66 -147 -82 l-51 -30 -82 69 c-45 39 -87 70 -93 70 -7 0 -22 -8 -33 -17 -12
-10 -9 -4 7 13 l27 30 0 200 0 201 48 22 c26 12 85 44 132 71 47 27 90 49 97
49 7 1 51 -33 98 -74z m386 20 c24 -30 46 -55 49 -55 3 0 30 24 59 54 51 51
56 54 75 40 24 -16 69 -18 97 -4 16 9 19 7 19 -15 0 -40 -37 -104 -73 -125
-43 -27 -85 -25 -130 5 l-37 26 0 -205 0 -205 33 -25 c41 -31 45 -32 74 -4 13
12 23 19 23 15 0 -8 -165 -147 -175 -147 -5 0 -39 27 -76 60 -37 33 -70 56
-74 50 -3 -5 -16 -15 -28 -21 -12 -5 -5 4 16 21 l37 32 0 181 c0 179 0 181
-26 219 -15 21 -29 38 -32 38 -3 0 -15 -8 -27 -17 -12 -10 15 17 59 59 45 43
84 77 87 78 3 0 26 -25 50 -55z m2226 -65 l21 -25 24 23 c13 12 28 22 34 22 5
0 -6 -12 -23 -26 l-33 -25 0 -180 0 -179 36 -40 36 -40 32 21 c33 22 -19 -28
-103 -98 l-43 -37 -18 21 c-9 12 -35 42 -57 67 l-40 46 -29 -22 -29 -22 23 25
c21 24 22 33 22 210 l0 184 -31 38 c-34 42 -44 44 -73 20 l-21 -17 20 21 c11
12 49 46 85 77 l65 56 40 -47 c22 -26 50 -59 62 -73z m410 0 c15 12 16 12 6 0
-10 -10 -13 -67 -13 -209 l0 -195 27 -28 27 -29 -64 -57 c-35 -31 -67 -57 -71
-57 -4 0 -32 29 -64 64 l-56 63 20 22 c19 21 21 34 21 177 l0 155 -44 49 c-41
47 -45 49 -62 34 -11 -9 -26 -19 -34 -24 -8 -4 8 12 35 36 28 24 68 61 90 82
l40 37 62 -66 c56 -60 64 -66 80 -54z m285 -4 c7 6 46 37 87 69 l73 59 62 -68
61 -68 27 21 c38 30 45 26 9 -5 l-31 -26 0 -182 0 -182 35 -34 c34 -33 35 -33
57 -16 13 10 -15 -18 -62 -63 -46 -44 -87 -81 -91 -81 -3 0 -34 31 -67 69 -53
59 -59 71 -47 81 12 10 15 43 15 172 l0 160 -46 54 c-39 45 -49 52 -65 43 -18
-9 -19 -24 -19 -205 0 -185 1 -196 22 -225 l22 -29 -59 -60 c-33 -33 -62 -59
-66 -58 -3 2 -32 31 -64 66 -54 59 -57 64 -41 81 13 15 16 44 16 178 l0 161
-45 53 c-30 35 -42 56 -35 63 5 5 33 29 62 52 l53 43 62 -66 c46 -51 65 -64
75 -57z m844 9 c72 -125 74 -110 -26 -181 -30 -21 -51 -33 -47 -26 8 11 -104
215 -124 228 -5 3 -9 -61 -9 -155 0 -89 4 -161 8 -161 4 0 14 6 22 13 8 6 5 0
-8 -14 -12 -14 -22 -32 -22 -40 0 -8 31 -45 68 -82 l69 -68 76 60 c42 34 80
61 83 61 4 0 -58 -51 -137 -114 l-144 -114 -30 25 c-16 14 -56 50 -87 79 l-58
53 0 194 0 195 28 11 c16 7 80 43 143 81 63 38 118 68 123 67 5 -2 37 -52 72
-112z m-9434 -22 l49 -38 -28 -23 c-69 -57 -69 -57 -110 -26 -20 16 -42 33
-47 37 -7 5 6 22 34 47 25 22 47 40 49 40 2 0 26 -17 53 -37z m7518 -1 l49
-39 -49 -37 c-53 -40 -53 -40 -111 8 l-36 30 46 38 c25 20 48 37 50 38 2 0 25
-17 51 -38z"/>
<path d="M6030 1377 l-25 -13 -3 -212 -2 -212 32 0 c36 0 69 22 87 57 7 13 11
86 11 192 l0 170 -30 16 c-35 18 -38 18 -70 2z"/>
<path d="M6620 1346 l0 -204 73 -67 72 -66 3 203 2 202 -57 59 c-99 100 -93
108 -93 -127z"/>
</g>
</svg>
